External Loads File
version=1
nRows=46
nColumns=13
Range=5.000000e-03-10 seconds
endheader
time 	forceRightX 	forceRightY 	forceRightZ 	pointRightX 	pointRightY 	pointRightZ 	forceLeftX 	forceLeftY 	forceLeftZ 	pointLeftX 	pointLeftY 	pointLeftZ 		
2.505000 -84.343778 18.675673 -0.000000 0.246685 0.490390 -0.160470 249.362072 706.753953 -0.000000 0.242144 0.148304 -0.399764
2.510000 -79.237321 30.953147 -0.000000 0.255856 0.492082 -0.160794 241.210699 590.245939 -0.000000 0.234107 0.148201 -0.399780
2.515000 -73.919297 42.145407 -0.000000 0.264113 0.492920 -0.160785 227.474388 475.721869 -0.000000 0.226018 0.148590 -0.399894
2.520000 -68.208579 52.794250 -0.000000 0.272672 0.493541 -0.160978 211.619329 364.899099 -0.000000 0.217861 0.149610 -0.399874
2.525000 -62.011934 63.217872 -0.000000 0.281162 0.493590 -0.161354 194.250210 259.880073 -0.000000 0.209500 0.151172 -0.399934
2.530000 -55.286313 73.843647 -0.000000 0.289467 0.493025 -0.161342 175.841246 162.172947 -0.000000 0.201125 0.153213 -0.399892
2.535000 -48.035847 85.228893 -0.000000 0.297371 0.492126 -0.161528 156.745260 72.733484 -0.000000 0.192757 0.155941 -0.399842
2.540000 -40.298946 98.059979 -0.000000 0.304768 0.490591 -0.161541 137.026448 -7.840234 -0.000000 0.184402 0.159269 -0.399656
2.545000 -32.147470 113.122736 -0.000000 0.312069 0.488434 -0.161604 116.394828 -79.013501 -0.000000 0.176472 0.163171 -0.399591
2.550000 -23.782358 131.233147 -0.000000 0.318955 0.485559 -0.161560 94.637288 -140.091054 -0.000000 0.169131 0.167704 -0.399432
2.555000 -15.425988 153.219247 -0.000000 0.325190 0.482098 -0.161485 72.045521 -190.522092 -0.000000 0.162307 0.172554 -0.399114
2.560000 -7.070753 179.837049 -0.000000 0.331003 0.478120 -0.161525 49.091164 -230.170335 -0.000000 0.155866 0.177865 -0.398742
2.565000 1.029647 211.616408 -0.000000 0.336394 0.473479 -0.161746 26.806129 -259.119972 -0.000000 0.149739 0.183312 -0.398526
2.570000 8.547505 248.774453 -0.000000 0.341384 0.468121 -0.161699 6.290719 -277.767993 -0.000000 0.143787 0.188942 -0.398369
2.575000 15.444729 291.016335 -0.000000 0.345932 0.461748 -0.161588 -11.831255 -286.635243 -0.000000 0.137864 0.195360 -0.398293
2.580000 21.076303 337.474964 -0.000000 0.350348 0.454581 -0.161365 -26.387406 -286.304208 -0.000000 0.132030 0.201921 -0.398178
2.585000 25.445341 386.707556 -0.000000 0.354876 0.446816 -0.161389 -36.886801 -277.494310 -0.000000 0.126250 0.208879 -0.398048
2.590000 28.566680 436.897720 -0.000000 0.359429 0.438372 -0.161569 -42.810080 -261.150593 -0.000000 0.120553 0.216134 -0.397944
2.595000 30.141699 486.141575 -0.000000 0.363560 0.429536 -0.161684 -43.673505 -238.519120 -0.000000 0.114703 0.223531 -0.397324
2.600000 30.573129 532.663077 -0.000000 0.367352 0.419654 -0.161580 -39.754159 -210.998936 -0.000000 0.109751 0.231237 -0.397625
2.605000 29.225057 575.148060 -0.000000 0.370869 0.410030 -0.161901 -31.222362 -180.235758 -0.000000 0.105016 0.239180 -0.397908
2.610000 26.272907 612.727492 -0.000000 0.374011 0.400408 -0.162356 -18.914047 -147.932918 -0.000000 0.100848 0.247488 -0.398255
2.615000 22.743816 644.981671 -0.000000 0.377145 0.390541 -0.162898 -3.951618 -115.848500 -0.000000 0.097103 0.256091 -0.398752
2.620000 17.884857 671.998822 -0.000000 0.379718 0.380743 -0.163218 12.840463 -85.671524 -0.000000 0.093889 0.265101 -0.399225
2.625000 11.969537 694.210398 -0.000000 0.382017 0.370939 -0.163497 30.259560 -58.746644 -0.000000 0.091201 0.274349 -0.399715
2.630000 5.541056 712.392976 -0.000000 0.384017 0.360878 -0.163633 47.069657 -36.037000 -0.000000 0.089191 0.283806 -0.400224
2.635000 -2.004900 727.597333 -0.000000 0.385704 0.350888 -0.163551 62.199439 -18.001865 -0.000000 0.087774 0.293396 -0.400496
2.640000 -9.832594 740.996227 -0.000000 0.387088 0.340685 -0.163565 74.733775 -4.835589 -0.000000 0.087056 0.303056 -0.400725
2.645000 -17.415190 753.776388 -0.000000 0.388165 0.330317 -0.163159 84.052686 3.507941 -0.000000 0.087003 0.312805 -0.400803
2.650000 -24.300785 767.004748 -0.000000 0.388584 0.319811 -0.163153 89.711832 7.260014 -0.000000 0.087633 0.322563 -0.400918
2.655000 -30.041158 781.548680 -0.000000 0.388736 0.309359 -0.162643 91.400841 6.807981 -0.000000 0.088892 0.332380 -0.401070
2.660000 -33.833315 798.073829 -0.000000 0.388150 0.298949 -0.163087 88.971426 2.643580 -0.000000 0.090883 0.342200 -0.401295
2.665000 -34.978496 817.016375 -0.000000 0.387042 0.288505 -0.162934 82.472766 -4.589441 -0.000000 0.093547 0.351918 -0.401438
2.670000 -32.897905 838.563221 -0.000000 0.385293 0.278258 -0.162901 72.179572 -14.130031 -0.000000 0.096913 0.361688 -0.401542
2.675000 -27.518854 862.669560 -0.000000 0.382955 0.268212 -0.162866 58.572295 -25.129839 -0.000000 0.100933 0.371372 -0.401562
2.680000 -18.817846 889.124465 -0.000000 0.379887 0.258355 -0.162763 42.296767 -36.758649 -0.000000 0.105576 0.380780 -0.401500
2.685000 -6.616413 917.559530 -0.000000 0.376170 0.248830 -0.162624 24.163101 -48.254420 -0.000000 0.110804 0.390067 -0.401430
2.690000 9.967096 947.422709 -0.000000 0.371805 0.239317 -0.162506 5.073447 -58.955214 -0.000000 0.116580 0.399205 -0.401448
2.695000 28.548094 978.005716 -0.000000 0.366876 0.230314 -0.162412 -13.833434 -68.321245 -0.000000 0.122772 0.407908 -0.401442
2.700000 50.055193 1008.413488 -0.000000 0.361346 0.221559 -0.162313 -31.659597 -76.062209 -0.000000 0.129368 0.416258 -0.401540
2.705000 74.245280 1037.550022 -0.000000 0.355309 0.213031 -0.162141 -47.582691 -82.055596 -0.000000 0.136327 0.424305 -0.401741
2.710000 100.222690 1064.209763 -0.000000 0.348818 0.204771 -0.162038 -60.955673 -86.377911 -0.000000 0.143618 0.431922 -0.401943
2.715000 126.281276 1087.225323 -0.000000 0.342023 0.197050 -0.161998 -71.342865 -89.309940 -0.000000 0.151141 0.439075 -0.402232
2.720000 153.959954 1105.074023 -0.000000 0.334480 0.189819 -0.161919 -78.886886 -91.011582 -0.000000 0.158954 0.445955 -0.402455
2.725000 180.455850 1116.799137 -0.000000 0.326754 0.183248 -0.161766 -83.669792 -91.913513 -0.000000 0.166961 0.452536 -0.402623
2.730000 206.489959 1121.099872 -0.000000 0.318355 0.177250 -0.162014 -86.274069 -92.113283 -0.000000 0.175150 0.458669 -0.402691
